<svg xmlns="http://www.w3.org/2000/svg" xmlns:xlink="http://www.w3.org/1999/xlink"
     viewBox="15 0 1920.75 735.25"><defs><linearGradient id="a" x1="0.882" y1="0.797"
                                                        x2="0.5" y2="1" gradientUnits="objectBoundingBox"><stop offset="0" stop-color="#68a9db"></stop><stop offset="1" stop-color="#59bead"></stop></linearGradient></defs><g transform="translate(14.727 -385.383)"><path d="M1848.474-1555.273c-10.511,0-22.158-.578-34.617-1.718-13.015-1.191-27.275-3.028-42.385-5.459-15.727-2.53-32.829-5.776-50.83-9.649-18.7-4.026-38.876-8.834-59.958-14.291-21.885-5.667-45.358-12.188-69.766-19.383-25.274-7.451-52.275-15.837-80.254-24.925-58.7-19.068-124.207-42.04-194.7-68.28-50.5-18.8-102.581-36.937-154.789-53.909-49.94-16.235-101.336-31.839-152.761-46.379l-87.965-13.246L34.736-1963.945c-26.443-1.69-53.026-3.157-79.009-4.359v-168.422C46.294-2082.865,207.108-2019.6,433.7-1948.69c46.289,14.485,93.893,28.5,141.49,41.65l269.772,50.62,630.7,110.255c89.178,8.1,178.954,14.053,266.836,17.7,45.022,1.869,89.846,3.143,133.226,3.787v167.866A222.521,222.521,0,0,1,1848.474-1555.273ZM699.144-1874.652c56.74,13.99,115.077,27.232,173.39,39.359C815.751-1849.373,757.414-1862.616,699.144-1874.652ZM-51.388-2281.8H-57c3.188-.745,5.227-1.132,5.6-1.2h.007v1.2Z" transform="translate(42.273 2668.383)" opacity="0.1" fill="url(#a)"></path><path d="M1834.582-1627.293h-.024c-10.042,0-21.266-.586-33.36-1.742-12.651-1.209-26.613-3.076-41.5-5.549-15.527-2.581-32.472-5.889-50.364-9.833-18.624-4.1-38.8-9.014-59.981-14.593-21.99-5.792-45.659-12.464-70.349-19.829-25.548-7.62-52.958-16.213-81.468-25.541-59.829-19.573-126.882-43.166-199.3-70.123-29.4-10.945-59.556-21.745-89.624-32.1-29.32-10.1-59.3-20.024-89.1-29.506-57.36-18.253-116.5-35.637-175.786-51.67l-41-7.257L-57-2009.939v-189.526c89.249,41.243,246.458,97.248,467.261,166.459l416.977,101.061L1615.232-1813c47.861,2.056,94.423,3.1,138.392,3.1,42.342,0,74.5-.984,94.019-1.81,6.074-.257,11.914-.539,17.357-.839v182.989c-.908.156-1.825.3-2.723.438A189.564,189.564,0,0,1,1834.582-1627.293Z" transform="translate(55 2747.909)" opacity="0.1" fill="url(#a)"></path></g></svg>